<?xml version="1.0" encoding="UTF-8"?>
<svg id="_레이어_1" data-name="레이어 1" xmlns="http://www.w3.org/2000/svg" xmlns:xlink="http://www.w3.org/1999/xlink" viewBox="0 0 611.38 99.59">
  <defs>
    <style>
      .cls-1 {
        clip-path: url(#clippath);
      }

      .cls-2 {
        fill: none;
      }

      .cls-2, .cls-3, .cls-4, .cls-5, .cls-6 {
        stroke-width: 0px;
      }

      .cls-3 {
        fill: url(#_무제_그라디언트_16);
      }

      .cls-4 {
        fill: #8954ff;
      }

      .cls-5 {
        fill: #fff;
      }

      .cls-6 {
        fill: #804dfd;
      }
    </style>
    <clipPath id="clippath">
      <path class="cls-2" d="M25.33,6.36C45.72-4.78,76.02-.51,92.83,18.62c15.76,17.93,16.48,45.69-5.71,67.08-21.48,20.71-52.83,17.36-73.91-7.31C-5.21,56.83-4.6,22.71,25.33,6.36"/>
    </clipPath>
    <linearGradient id="_무제_그라디언트_16" data-name="무제 그라디언트 16" x1="41.19" y1="106.56" x2="52.52" y2="42.31" gradientUnits="userSpaceOnUse">
      <stop offset="0" stop-color="#cbbaff"/>
      <stop offset=".92" stop-color="#fff"/>
    </linearGradient>
  </defs>
  <g id="Elice_School_BI_en" data-name="Elice School BI_en">
    <g>
      <path class="cls-6" d="M124.82,18.93c0-2.68,2.05-4.44,5.59-4.44h33.25c2.79,0,4.75,1.76,4.75,5.45s-1.96,5.45-4.75,5.45h-27.57v17.29h24.59c2.79,0,4.75,1.94,4.75,5.55s-1.96,5.64-4.75,5.64h-24.59v19.41h27.57c2.79,0,4.75,1.76,4.75,5.45s-1.96,5.45-4.75,5.45h-33.25c-3.54,0-5.59-1.76-5.59-4.44V18.93Z"/>
      <path class="cls-6" d="M178.66,16.81c0-2.68,1.96-4.53,5.59-4.53s5.78,1.85,5.78,4.53v63.69c0,2.68-2.05,4.53-5.68,4.53s-5.68-1.85-5.68-4.53V16.81Z"/>
      <path class="cls-6" d="M209.96,12.28c3.91,0,6.99,2.96,6.99,6.84s-3.07,6.66-6.99,6.66-6.89-2.87-6.89-6.66,2.89-6.84,6.89-6.84M204.27,36.68c0-2.68,1.96-4.44,5.59-4.44s5.78,1.76,5.78,4.44v43.82c0,2.68-2.05,4.53-5.68,4.53s-5.68-1.85-5.68-4.53v-43.82Z"/>
      <path class="cls-6" d="M264.73,36.03c1.3.74,2.42,2.22,2.42,4.53,0,2.13-1.96,5.08-4.66,5.08-.75,0-1.58-.09-2.61-.56-2.33-1.29-4.47-2.13-8.38-2.13-6.89,0-13.41,3.05-13.41,15.53s6.52,16.45,14.53,16.45c3.45,0,5.87-.83,8.2-2.5,1.12-.74,2.05-.92,2.98-.92,3.07,0,4.84,3.42,4.84,5.36,0,1.66-.28,2.77-2.33,4.44-3.17,2.68-7.82,4.25-14.06,4.25-14.06,0-25.06-7.77-25.06-27.27s10.9-26.25,23.57-26.25c7.27,0,11.08,1.85,13.97,3.98"/>
      <path class="cls-6" d="M292.38,63.95c-2.14,0-4.38-1.85-4.38-5.36s2.23-5.08,4.38-5.08h19.47c-.56-7.02-4.47-10.72-11.74-10.72s-14.16,3.51-14.16,15.9,6.61,16.46,15.46,16.46c4.66,0,8.1-1.48,10.99-3.24,1.02-.65,2.05-1.02,3.17-1.02,2.61,0,4.84,2.13,4.84,4.99,0,2.03-.56,3.14-1.96,4.25-2.42,2.03-7.73,5.45-17.05,5.45-18.82,0-26.36-11.56-26.36-26.9s7.82-26.62,24.87-26.62c12.76,0,22.17,8.6,22.17,24.04,0,4.07-1.68,7.86-6.99,7.86h-22.73Z"/>
      <path class="cls-6" d="M366.07,64.51c0-5.18-2.98-8.41-11.18-10.72l-5.31-1.29c-10.8-2.77-18.35-8.6-18.35-20.24s8.76-19.23,22.73-19.23c7.73,0,14.16,2.68,17.51,4.81,1.68,1.2,2.89,2.77,2.89,4.81,0,2.96-2.33,5.73-5.03,5.73-.93,0-2.24-.28-3.35-1.02-3.17-1.85-6.89-3.42-11.64-3.42-5.78,0-11.55,2.13-11.55,8.41,0,5.73,3.54,7.95,9.78,9.52l6.89,1.94c11.18,2.96,17.7,9.61,17.7,20.24,0,11.55-8.1,21.26-24.5,21.26-8.66,0-16.49-3.05-20.21-6.1-1.77-1.57-2.79-2.86-2.79-5.36,0-2.77,2.42-5.55,5.12-5.55,1.49,0,2.52.28,3.63.92,4.47,2.96,8.85,4.99,14.06,4.99,8.66,0,13.6-3.79,13.6-9.71"/>
      <path class="cls-6" d="M422.15,36.03c1.3.74,2.42,2.22,2.42,4.53,0,2.13-1.96,5.08-4.66,5.08-.75,0-1.58-.09-2.61-.56-2.33-1.29-4.47-2.13-8.38-2.13-6.89,0-13.41,3.05-13.41,15.53s6.52,16.45,14.53,16.45c3.45,0,5.87-.83,8.2-2.5,1.12-.74,2.05-.92,2.98-.92,3.07,0,4.84,3.42,4.84,5.36,0,1.66-.28,2.77-2.33,4.44-3.17,2.68-7.82,4.25-14.06,4.25-14.06,0-25.06-7.77-25.06-27.27s10.9-26.25,23.57-26.25c7.27,0,11.08,1.85,13.97,3.98"/>
      <path class="cls-6" d="M435.27,16.81c0-2.68,1.77-4.53,5.4-4.53s5.59,1.85,5.59,4.53v19.6c2.79-2.59,7.54-4.16,12.11-4.16,10.34,0,19,7.12,19,18.49v29.95c0,3.24-2.42,4.62-5.4,4.62s-5.59-1.39-5.59-4.62v-28.1c0-5.92-4.28-9.15-9.87-9.15-6.15,0-10.06,3.14-10.25,8.6v28.75c0,2.68-1.86,4.53-5.5,4.53s-5.5-1.85-5.5-4.53V16.81Z"/>
      <path class="cls-6" d="M599.19,16.81c0-2.68,1.96-4.53,5.59-4.53s5.77,1.85,5.77,4.53v63.69c0,2.68-2.05,4.53-5.68,4.53s-5.68-1.85-5.68-4.53V16.81Z"/>
      <path class="cls-6" d="M588.83,30.04c-9.19-.48-18.12,2.09-24.34,4.27-8.46-4.29-17.98-6.54-27.9-6.54s-19.44,2.25-27.9,6.54c-6.22-2.18-15.15-4.75-24.34-4.27-2.77.14-5.08,2.32-4.93,5.06.14,2.75,2.69,4.98,5.46,4.88,3.72-.13,9.67.68,12.71,1.65-6.19,5.4-9.77,12.97-9.77,21.85,0,14.74,9.59,24.44,22.8,24.44s22.8-9.7,22.8-24.43c0-8.89-3.68-16.51-9.49-21.44-.83-.71-1.8-1.38-2.82-2.02,4.28-1.6,10.13-2.78,15.49-2.78s11.21,1.18,15.49,2.78c-1.02.64-1.99,1.32-2.82,2.02-5.81,4.93-9.49,12.55-9.49,21.44,0,14.74,9.59,24.43,22.8,24.43s22.8-9.7,22.8-24.44c0-8.88-3.58-16.45-9.77-21.85,3.04-.97,8.98-1.78,12.71-1.65,2.77.09,5.31-2.14,5.46-4.88.14-2.75-2.17-4.92-4.93-5.06M523.37,62.99c0,9.11-5.24,15.47-12.76,15.47h0c-7.51,0-12.76-6.36-12.76-15.47,0-8.5,4.95-16.05,12.76-18.27,7.8,2.22,12.76,9.76,12.76,18.27M562.58,78.46h0c-7.51,0-12.76-6.36-12.76-15.47,0-8.5,4.95-16.05,12.76-18.27,7.8,2.22,12.76,9.76,12.76,18.27,0,9.11-5.24,15.47-12.76,15.47"/>
    </g>
  </g>
  <g class="cls-1">
    <g id="Elice_School_BI_kr" data-name="Elice School BI_kr">
      <g>
        <path class="cls-4" d="M25.33,6.36C45.72-4.78,76.02-.51,92.83,18.62c15.76,17.93,16.48,45.69-5.71,67.08-21.48,20.71-52.83,17.36-73.91-7.31C-5.21,56.83-4.6,22.71,25.33,6.36"/>
        <path class="cls-5" d="M23.94,88.93c-.43.2.08-.02,0,0"/>
      </g>
    </g>
    <path class="cls-5" d="M62.45,24.96c0,5.47-4.43,9.9-9.9,9.9s-9.9-4.43-9.9-9.9,4.43-9.9,9.9-9.9,9.9,4.43,9.9,9.9"/>
    <g>
      <path class="cls-3" d="M29.73,104.54l-4.28-8.28c.56-.29,1.15-.57,1.79-.88,4.28-2.05,10.74-5.14,23.52-19.52,6.04-6.8,7.77-16.55,5.59-21.4-1.03-2.3-2.5-2.61-3.81-2.61v-9.32c5.51,0,10,2.96,12.31,8.11,3.98,8.86.91,22.36-7.13,31.4-14.03,15.78-21.51,19.36-26.46,21.73-.55.26-1.06.51-1.54.75Z"/>
      <path class="cls-5" d="M75.37,104.54c-.48-.25-.99-.49-1.54-.75-4.95-2.37-12.43-5.95-26.46-21.73-8.04-9.05-11.1-22.55-7.13-31.4,2.31-5.15,6.8-8.11,12.31-8.11v9.32c-1.3,0-2.78.31-3.81,2.61-2.18,4.85-.45,14.6,5.59,21.4,12.78,14.38,19.24,17.47,23.52,19.52.64.31,1.24.59,1.79.88l-4.27,8.28Z"/>
    </g>
  </g>
</svg>