<?xml version="1.0" encoding="UTF-8"?>
<svg id="_레이어_1" data-name="레이어 1" xmlns="http://www.w3.org/2000/svg" viewBox="0 0 708.02 98.88">
  <defs>
    <style>
      .cls-1 {
        fill: #000;
      }

      .cls-1, .cls-2, .cls-3 {
        stroke-width: 0px;
      }

      .cls-2 {
        fill: #fff;
      }

      .cls-3 {
        fill: #7900ed;
      }
    </style>
  </defs>
  <g>
    <path class="cls-1" d="M347.45,75.46h29.85v6.93h-37.51V28.97h36.78v6.87h-29.12v16.05h27.14v6.87h-27.14v16.71Z"/>
    <path class="cls-1" d="M384.89,82.33v-40.55h7.46v5.55c2.97-4.36,7.92-6.67,13.54-6.67,9.58,0,15.26,6.67,15.26,17.24v24.43h-7.46v-24.04c0-7.2-3.43-11.03-9.44-11.03-6.8,0-11.89,5.41-11.89,12.35v22.72h-7.46Z"/>
    <path class="cls-1" d="M456.48,75.6v5.94c-1.98,1.12-4.16,1.65-6.8,1.65-9.38,0-14.33-5.22-14.33-15.12v-19.94h-8.32v-6.34h8.32v-11.29h7.46v11.29h12.75v6.34h-12.75v19.61c0,6.01,2.38,8.85,7.46,8.98,1.78.07,4.1-.26,6.21-1.12Z"/>
    <path class="cls-1" d="M460.9,62.39c0-13.41,7.07-21.73,18.56-21.73s18.76,7.92,18.76,21.6v1.92h-29.78v.92c.33,7,4.89,11.76,11.62,11.76,5.42,0,9.25-2.58,10.1-7.13h7.66c-1.32,8.52-8.12,13.47-17.7,13.47-11.89,0-19.22-8.06-19.22-20.8ZM490.82,58.23c-.13-7.13-4.16-11.29-11.23-11.29-6.54,0-10.7,4.56-11.16,11.29h22.39Z"/>
    <path class="cls-1" d="M505.94,82.33v-40.55h7.26v7.53c3.57-6.21,10.5-9.51,18.56-8.45v7.07c-1.06-.4-2.71-.73-5.02-.2-7.73.4-13.34,6.74-13.34,16.18v18.43h-7.46Z"/>
    <path class="cls-1" d="M537.9,95.47v-53.69h7.2v6.08c2.77-4.49,7.99-7.2,13.87-7.2,10.7,0,17.57,8.32,17.57,20.94s-7.13,21.6-18.1,21.6c-5.74,0-10.5-2.51-13.21-6.94v19.22h-7.33ZM569.07,61.73c-.07-8.85-4.75-14.73-11.62-14.73s-12.09,6.27-12.09,14.99,4.95,14.86,12.02,14.86,11.76-5.88,11.69-15.12Z"/>
    <path class="cls-1" d="M584.26,82.33v-40.55h7.26v7.53c3.57-6.21,10.5-9.51,18.56-8.45v7.07c-1.06-.4-2.71-.73-5.02-.2-7.73.4-13.34,6.74-13.34,16.18v18.43h-7.46Z"/>
    <path class="cls-1" d="M616.09,34.98v-7.53h8.06v7.53h-8.06ZM616.42,82.33v-40.55h7.4v40.55h-7.4Z"/>
    <path class="cls-1" d="M631.02,70.05h7.73c.53,4.23,4.62,7.13,10.04,7.13,5.81,0,9.25-2.31,9.25-6.08,0-3.43-2.31-4.75-9.11-6.21l-3.96-.79c-8.59-1.85-12.68-5.74-12.68-11.56,0-7.07,6.41-11.89,15.72-11.89s16.11,4.89,16.64,12.22h-7.66c-.46-3.96-3.57-6.01-8.91-6.01s-8.39,1.98-8.39,5.41c0,3.24,2.51,4.95,8.32,6.14l5.22,1.12c8.12,1.65,12.22,5.08,12.22,11.29,0,7.59-6.47,12.55-16.58,12.55s-16.84-5.15-17.83-13.34Z"/>
    <path class="cls-1" d="M670.71,62.39c0-13.41,7.07-21.73,18.56-21.73s18.76,7.92,18.76,21.6v1.92h-29.78v.92c.33,7,4.89,11.76,11.62,11.76,5.41,0,9.24-2.58,10.1-7.13h7.66c-1.32,8.52-8.12,13.47-17.7,13.47-11.89,0-19.22-8.06-19.22-20.8ZM700.62,58.23c-.13-7.13-4.16-11.29-11.23-11.29-6.54,0-10.7,4.56-11.16,11.29h22.39Z"/>
  </g>
  <g>
    <path class="cls-3" d="M185.25,15.1c18.03,10.33,34.21,16.57,53.71,14.38,24-2.7,33.73-16.68,56.92-7.6,11.65,4.56,20.31,16.99,21.05,30.15.72,12.83-5.35,24.24-14.4,31.4-11.16,8.82-26.4,15.82-51.87,15.43-29.82-.45-43.05-7.86-89.77-8.33-33.35-.34-55.26,7.72-95.9,8.33-20.91.31-45.29-8.14-56.77-21.96C-.45,66.47-1.71,53.64,1.87,42.7c3.48-10.63,14.33-20.48,26.62-22.45,23.43-3.76,27.42,10.13,48.37,8.57,19.68-1.47,28.26-16.72,43.33-23.76,11.22-5.24,24.14-6.34,35.86-3.62,9.9,2.29,19.19,7.94,29.19,13.66"/>
    <path class="cls-2" d="M110.28,55.28c-1.3-7.67-7.22-10.41-12.32-10.41-3.71,0-7.16,1.36-9.72,3.83-2.93,2.83-4.47,6.92-4.47,11.82,0,10.33,7.42,14.95,14.78,14.95,4.57,0,8.86-1.74,11.19-4.54l.08-.09-2.7-2.65-.09.1c-1.98,2.22-5.51,3.21-8.13,3.21-7.32,0-10.19-5.65-10.43-10.54h22v-.12c.18-1.89.11-3.77-.19-5.57h0ZM88.63,57.2c.96-6.75,6.1-8.56,9-8.56,2.18,0,4.26.89,5.87,2.52,1.61,1.63,2.54,3.82,2.55,6.04h-17.42Z"/>
    <path class="cls-2" d="M231.68,55.28h0c-1.3-7.67-7.22-10.41-12.32-10.41-3.71,0-7.16,1.36-9.72,3.83-2.93,2.83-4.47,6.92-4.47,11.82,0,10.33,7.42,14.95,14.78,14.95,4.57,0,8.86-1.74,11.19-4.54l.08-.09-2.7-2.65-.09.1c-1.98,2.22-5.51,3.21-8.13,3.21-7.32,0-10.19-5.65-10.43-10.54h22v-.12c.18-1.9.11-3.77-.19-5.57M210.03,57.2c.96-6.75,6.1-8.56,9-8.56,2.18,0,4.26.89,5.87,2.52,1.61,1.63,2.54,3.82,2.55,6.04h-17.42Z"/>
    <polygon class="cls-2" points="130.24 31.55 119.87 31.55 119.87 35.49 125.38 35.49 125.38 70.44 119.49 70.44 119.49 74.37 136.09 74.37 136.09 70.44 130.24 70.44 130.24 31.55"/>
    <path class="cls-2" d="M153.72,35.59c1.88,0,3.41-1.52,3.41-3.38s-1.53-3.39-3.41-3.39-3.42,1.52-3.42,3.39,1.53,3.38,3.42,3.38"/>
    <polygon class="cls-2" points="156.04 41.41 145.82 41.41 145.82 45.39 151.18 45.39 151.18 70.44 145.44 70.44 145.44 74.37 161.18 74.37 161.18 70.44 156.04 70.44 156.04 41.41"/>
    <path class="cls-2" d="M184.33,48.99c4.29,0,7.52,3.04,8.12,3.65.28.28.79.98.79.98l.1.14,2.91-3.4-.06-.08c-2.3-3.36-6.73-5.45-11.58-5.45-8.83,0-15.48,6.58-15.48,15.3s6.67,15.41,15.19,15.41c4.37,0,8.74-1.79,11.41-4.67l.08-.09-2.82-3.28-.1.11c-1.84,2.08-5.13,3.48-8.19,3.48-5.93,0-10.58-5.02-10.58-11.44,0-6.92,5.25-10.66,10.2-10.66"/>
    <polygon class="cls-2" points="292.05 36.08 272.71 77.68 276.25 79.31 295.65 37.76 292.05 36.08"/>
    <polygon class="cls-2" points="24.68 77.21 44.08 35.66 40.48 33.98 21.14 75.58 24.68 77.21"/>
    <polygon class="cls-2" points="68.97 53.53 59.19 56.71 59.19 46.42 55.61 46.42 55.61 56.71 45.83 53.53 44.72 56.93 54.51 60.11 48.46 68.44 51.35 70.54 57.4 62.21 63.45 70.54 66.34 68.44 60.29 60.11 70.07 56.93 68.97 53.53"/>
    <polygon class="cls-2" points="271.02 56.93 269.91 53.53 260.12 56.71 260.12 46.42 256.55 46.42 256.55 56.71 246.77 53.53 245.66 56.93 255.45 60.11 249.4 68.44 252.29 70.54 258.34 62.21 264.39 70.54 267.28 68.44 261.23 60.11 271.02 56.93"/>
  </g>
</svg>