<?xml version="1.0" encoding="UTF-8"?>
<svg id="_레이어_1" data-name="레이어 1" xmlns="http://www.w3.org/2000/svg" viewBox="0 0 874.34 120.86">
  <defs>
    <style>
      .cls-1, .cls-2, .cls-3 {
        stroke-width: 0px;
      }

      .cls-2 {
        fill: #8843ff;
      }

      .cls-3 {
        fill: #040000;
      }
    </style>
  </defs>
  <g>
    <path class="cls-3" d="m228.39,81.55v14.63h-53.58V24.79h52.58v14.01h-35.94v13.75h33.19v14.01h-33.19v14.99h36.94Z"/>
    <path class="cls-3" d="m236.62,22.75h16.28v73.44h-16.28V22.75Z"/>
    <path class="cls-3" d="m263.5,19.56h15.91v13.57h-15.91v-13.57Zm0,76.63v-55.08h15.91v55.08h-15.91Z"/>
    <path class="cls-3" d="m288.18,67.98c0-18,10.7-29.62,27.43-29.62s26.43,9.49,26.7,22.44h-16.46c-.73-5.41-4.66-8.69-10.15-8.69-7.13,0-11.52,6.03-11.52,15.7s4.3,15.88,11.52,15.88c5.58,0,9.6-3.1,10.33-7.98h16.55c-.37,12.51-10.97,21.73-26.98,21.73-16.92,0-27.43-11.26-27.43-29.45Z"/>
    <path class="cls-3" d="m348.98,67.72c0-18.45,10.06-29.36,27.16-29.36s27.43,10.73,27.43,29.27v4.52h-38.41v.89c0,6.74,4.85,11.62,11.7,11.62,6.04,0,9.88-2.31,10.7-6.39h16c-1.55,11.88-11.7,19.16-26.61,19.16-17.74,0-27.98-10.91-27.98-29.71Zm38.95-6.83c0-6.21-4.11-10.02-11.61-10.02-6.68,0-11.06,4.26-11.06,10.02h22.68Z"/>
    <path class="cls-3" d="m479.44,96.19h-17.92l-4.66-13.21h-28.26l-4.85,13.21h-18.01l27.98-71.4h18.65l27.07,71.4Zm-27.43-26.87l-6.49-18.18c-.91-2.75-1.46-5.06-2.56-7.72-1.01,2.66-1.65,4.88-2.65,7.72l-6.68,18.18h18.38Z"/>
    <path class="cls-3" d="m480.04,67.98c0-18,10.7-29.62,27.43-29.62s26.43,9.49,26.7,22.44h-16.46c-.73-5.41-4.66-8.69-10.15-8.69-7.13,0-11.52,6.03-11.52,15.7s4.3,15.88,11.52,15.88c5.58,0,9.6-3.1,10.33-7.98h16.55c-.37,12.51-10.97,21.73-26.98,21.73-16.92,0-27.43-11.26-27.43-29.45Z"/>
    <path class="cls-3" d="m595.55,59.82v36.36h-14.17l-1.46-6.74c-2.65,4.61-9.78,7.72-17.65,7.72-12.34,0-20.48-7.18-20.48-17.74,0-11.8,10.33-18.09,28.62-18.09h8.87v-2.22c0-5.06-3.47-8.34-9.33-8.34-5.03,0-8.23,2.75-8.87,6.12h-16.37c.82-10.73,10.97-18.18,25.24-18.18,16.73,0,25.6,7.36,25.6,21.11Zm-29.54,25.45c7.59,0,12.89-5.14,12.89-12.33v-1.42h-8.14c-9.33,0-13.26,2.57-13.26,7.45,0,3.9,3.38,6.3,8.5,6.3Z"/>
    <path class="cls-3" d="m645.45,96.19l-1.19-7.1c-3.47,4.61-9.24,7.54-16.83,7.54-14.36,0-23.96-12.24-23.96-28.47,0-17.65,8.96-28.82,24.6-28.82,7.41,0,12.89,2.75,16.64,7.45v-24.04h15.09v73.44h-14.36Zm-14.36-12.33c8.23,0,12.71-6.12,12.71-16.23,0-9.49-4.48-15.7-12.44-15.7-7.22,0-11.98,6.12-11.89,15.96.09,9.67,4.94,15.96,11.61,15.96Z"/>
    <path class="cls-3" d="m667.72,67.72c0-18.45,10.06-29.36,27.16-29.36s27.43,10.73,27.43,29.27v4.52h-38.41v.89c0,6.74,4.85,11.62,11.7,11.62,6.04,0,9.88-2.31,10.7-6.39h16c-1.55,11.88-11.7,19.16-26.61,19.16-17.74,0-27.98-10.91-27.98-29.71Zm38.95-6.83c0-6.21-4.11-10.02-11.61-10.02-6.68,0-11.06,4.26-11.06,10.02h22.68Z"/>
    <path class="cls-3" d="m730.81,41.11h16v7.18c2.83-5.85,8.87-8.69,13.9-8.69,6.13,0,11.06,3.46,13.9,8.78,3.66-5.68,10.33-8.78,15.64-8.78,11.06,0,17.47,8.25,17.47,21.91v34.68h-16v-33.61c0-5.94-2.56-9.31-6.77-9.31-4.48,0-7.68,3.99-7.68,9.93v32.99h-15.82v-33.61c0-5.85-2.29-9.31-6.31-9.31-4.48,0-8.32,4.08-8.32,9.93v32.99h-16v-55.08Z"/>
    <path class="cls-3" d="m821.21,117.12l10.79-24.04-22.49-51.97h17.28l12.44,31.93c.73,1.95,1.37,3.81,1.92,5.59.64-1.77,1.19-3.64,2.01-5.59l13.9-31.93h17.28l-35.3,76.01h-17.83Z"/>
  </g>
  <g>
    <rect class="cls-2" x="15.15" y="46.29" width="94.41" height="16.43" transform="translate(-15.69 82.21) rotate(-60.7)"/>
    <rect class="cls-2" x="79.61" y="78.61" width="57.47" height="16.43"/>
    <polygon class="cls-1" points="67.43 120.86 0 91.03 51.26 0 66.46 8.56 24.64 82.85 60 98.49 107.16 14.66 160.98 110.24 145.77 118.81 107.17 50.24 67.43 120.86"/>
  </g>
</svg>