<?xml version="1.0" encoding="UTF-8"?>
<svg id="_레이어_1" data-name="레이어 1" xmlns="http://www.w3.org/2000/svg" viewBox="0 0 1148.72 148.95">
  <defs>
    <style>
      .cls-1 {
        fill: #4f00b4;
        stroke-width: 0px;
      }
    </style>
  </defs>
  <path class="cls-1" d="M889.52,36.82h-48l-1.24,6.53c-7.86-6.19-18.55-9.87-30.93-9.87-22.59,0-52.82,12.89-61.32,57.74s16.84,57.74,39.43,57.74c12.39,0,24.43-3.51,34.68-9.87l-1.24,6.53h37.32l15.52-81.87h-12.54l15.3-14.54,13.02-12.37ZM831.22,91.21c-3.52,18.58-14.8,25.1-27.69,25.1-14.39,0-21.53-7.36-18.17-25.1,3.33-17.57,13.29-25.1,27.69-25.1,12.89,0,21.66,6.69,18.17,25.1Z"/>
  <polygon class="cls-1" points="118.84 91.21 124.74 60.08 59.63 60.08 63.73 38.49 135.36 38.49 141.58 5.69 86.33 5.69 32.62 5.69 15.09 5.69 12.29 22.96 29.35 22.96 35.26 22.96 34.52 27.5 28.49 27.5 28.48 27.51 .74 27.51 0 32.05 27.62 32.05 6.1 145.6 115.06 145.6 121.28 112.8 49.64 112.8 53.73 91.21 118.84 91.21"/>
  <polygon class="cls-1" points="157.71 0 130.12 145.6 167.44 145.6 195.04 0 157.71 0"/>
  <polygon class="cls-1" points="184.17 145.6 221.5 145.6 242.12 36.82 204.79 36.82 184.17 145.6"/>
  <path class="cls-1" d="M379.91,53.43l.74-4.54h-21.71s0,0-.01-.01h-18.77l.74-4.54h26.02l1.76-10.87h-52.97c-.05,0-.1,0-.16,0-43.68,0-66.26,27.28-72.03,57.74-5.77,30.46,6.46,57.74,50.15,57.74,38.66,0,64.11-22.09,68.33-44.35h-37.83c-.95,5.02-7.88,11.55-24.28,11.55s-23.34-10.21-20.55-24.94c2.79-14.73,13.6-24.94,30-24.94s20.86,6.53,19.9,11.55h37.83c1.63-8.58.08-17.12-4.63-24.39h17.48Z"/>
  <polygon class="cls-1" points="1102.17 103.26 1091.46 103.26 1092.2 98.72 1101.18 98.72 1110.07 98.72 1111.84 87.85 1080.6 87.85 1080.6 87.86 1075.03 87.86 1128.72 36.82 1088.05 36.82 1050.5 72.46 1059.13 26.92 1047.99 26.92 1061.58 13.99 1076.3 0 1064.23 0 1032.57 0 1026.91 0 999.31 145.6 1036.64 145.6 1041.49 119.99 1060.51 101.75 1070.28 145.6 1111.45 145.6 1103.17 107.81 1115.04 107.81 1115.78 103.27 1102.18 103.27 1102.17 103.26"/>
  <polygon class="cls-1" points="241.88 28.45 244.1 26.33 271.81 0 249.1 0 225.58 0 211.77 0 206.38 28.45 225.58 28.45 241.88 28.45"/>
  <polygon class="cls-1" points="654.12 38.49 664.31 28.81 688.63 5.69 668.69 5.69 635.33 5.69 546.51 5.69 540.29 38.49 582.63 38.49 562.33 145.6 599.66 145.6 619.96 38.49 635.33 38.49 654.12 38.49"/>
  <path class="cls-1" d="M934.94,116.15c-16.4,0-23.34-10.21-20.55-24.94,2.79-14.73,13.6-24.94,30-24.94s20.86,6.53,19.9,11.55h37.83c4.22-22.26-12.85-44.35-51.51-44.35-17.14,0-31.02,4.21-41.92,11.16-7.99,5.09-14.38,11.64-19.26,19.11-5.43,8.31-9.01,17.73-10.86,27.48-5.77,30.46,6.46,57.74,50.15,57.74,38.66,0,64.11-22.09,68.33-44.35h-37.83c-.95,5.02-7.88,11.55-24.28,11.55Z"/>
  <path class="cls-1" d="M705.78,51.04l2.38-12.55.32-1.67h-37.32l-.32,1.67-16.52,87.15h-23.89l-1.76,10.87h32.8l-.74,4.54h-9.33s-13.51.01-13.51.01l-.74,4.54h50.71l8.6-45.35c4.33-21.09,16.19-33.3,49.5-33.3l6.34-33.47c-20.09,0-35.65,7.03-46.51,17.57Z"/>
  <path class="cls-1" d="M482.46,95.84h25.87l1.76-10.87h-15.83c3.58-34.38-16.9-51.51-51.02-51.51-43.68,0-66.26,27.28-72.03,57.74-5.77,30.46,3.11,57.74,51.82,57.74,31.3,0,60.16-12.72,64.5-35.65h-38.66c-.76,4.02-12.05,6.19-20.25,6.19-15.23,0-21.44-5.19-22.51-14.56h112.55s.74-4.54.74-4.54h-37.68s.74-4.55.74-4.55ZM411.84,77.32c5.43-9.21,14.28-14.39,25.83-14.39s18.57,5.36,20.37,14.39h-46.2Z"/>
</svg>